<?xml version="1.0" encoding="UTF-8"?>
<svg width="25px" height="25px" viewBox="0 0 25 25" version="1.1" xmlns="http://www.w3.org/2000/svg" xmlns:xlink="http://www.w3.org/1999/xlink">
    <!-- Generator: Sketch 52.6 (67491) - http://www.bohemiancoding.com/sketch -->
    <title>Currency</title>
    <desc>Created with Sketch.</desc>
    <g id="Web" stroke="none" stroke-width="1" fill="none" fill-rule="evenodd">
        <g id="Game-Shell" transform="translate(-1181.000000, -13.000000)">
            <g id="Group-5" transform="translate(1181.000000, 10.000000)">
                <g id="Currency" transform="translate(0.000000, 3.000000)">
                    <circle id="Oval" stroke="#E5C62E" stroke-width="3" fill="#FFE66D" fill-rule="nonzero" cx="12.5" cy="12.5" r="11"></circle>
                    <path d="M12.323643,13.1795302 C12.772956,13.1942114 13.1353052,13.5318792 13.1642932,14.0310403 C13.1932811,14.5155201 12.8744138,14.926594 12.4395947,14.9853188 C12.338137,15 12.2366792,15 12.1497154,15 C10.468415,15 9.0625,13.7961409 9.0625,11.9169463 L9.0625,9.33305369 C9.0625,7.45385906 10.468415,6.25 12.1497154,6.25 C13.2077751,6.25 14.3527986,6.76384228 14.9180634,7.85025168 C15.120979,8.27600671 14.9325574,8.68708054 14.5122323,8.95134228 C14.1353891,9.18624161 13.5846183,9.05411074 13.2802449,8.59899329 C12.9903656,8.17323826 12.5410525,8.05578859 12.1497154,8.05578859 C11.4540049,8.05578859 10.8597521,8.55494966 10.8597521,9.33305369 L10.8597521,11.9169463 C10.8597521,12.7097315 11.4540049,13.1795302 12.1497154,13.1795302 L12.323643,13.1795302 Z M12.363857,11.8204698 C11.914544,11.8204698 11.5521948,11.4681208 11.5232068,10.9689597 C11.4942189,10.4844799 11.8130862,10.073406 12.2479053,10.0146812 C12.349363,10 12.4508208,10 12.5377846,10 C14.219085,10 15.625,11.2038591 15.625,13.0830537 L15.625,15.6669463 C15.625,17.5461409 14.219085,18.75 12.5377846,18.75 C11.4797249,18.75 10.3347014,18.2361577 9.76943659,17.1497483 C9.56652103,16.7239933 9.75494262,16.3129195 10.1752677,16.0486577 C10.5521109,15.8137584 11.1028817,15.9458893 11.4072551,16.4010067 C11.6971344,16.8267617 12.1464475,16.9442114 12.5377846,16.9442114 C13.2334951,16.9442114 13.8277479,16.4450503 13.8277479,15.6669463 L13.8277479,13.0830537 C13.8277479,12.2902685 13.2334951,11.8204698 12.5377846,11.8204698 L12.4508208,11.8204698 C12.4218329,11.8204698 12.392845,11.8204698 12.363857,11.8204698 Z" id="ยง" fill="#E5C62E" fill-rule="evenodd"></path>
                </g>
            </g>
        </g>
    </g>
</svg>