<?xml version="1.0" encoding="UTF-8"?>
<svg width="132px" height="26px" viewBox="0 0 132 26" version="1.1" xmlns="http://www.w3.org/2000/svg" xmlns:xlink="http://www.w3.org/1999/xlink">
    <!-- Generator: Sketch 63.1 (92452) - https://sketch.com -->
    <title>Group 19</title>
    <desc>Created with Sketch.</desc>
    <g id="Web" stroke="none" stroke-width="1" fill="none" fill-rule="evenodd">
        <g id="Band-Profile-Page" transform="translate(-65.000000, -12.000000)" fill="#000000">
            <g id="Group-19" transform="translate(65.000000, 12.000000)">
                <path d="M27.7345686,7.56505593 C28.0466442,7.38273298 28.4125259,7.22509131 28.8326357,7.09193186 C29.2523236,6.95877242 29.698176,6.86422722 30.1699819,6.80789819 C30.6419989,6.75196724 31.1323732,6.7396266 31.6415269,6.77127436 C32.1504697,6.80272308 32.6520272,6.88691807 33.1461996,7.02346124 C33.6403721,7.16020345 34.1161871,7.35307565 34.5732227,7.6018788 C35.0302584,7.85088099 35.4482582,8.16795573 35.8272222,8.55350109 C35.9460177,8.67969405 36.0036219,8.84450125 35.9998238,9.04772367 C35.9960257,9.25114512 35.9498157,9.46471775 35.8605609,9.68903867 C35.771306,9.91355863 35.6560975,10.1376805 35.5151466,10.3620014 C35.3737736,10.5865214 35.2214284,10.7774032 35.0581109,10.9350448 C34.8945825,11.0928856 34.7365402,11.2067379 34.584195,11.2768008 C34.4318497,11.3468638 34.30377,11.3398973 34.1997449,11.2557023 C33.8131847,10.954551 33.4027811,10.7232636 32.9679009,10.5618401 C32.5332317,10.4006157 32.0966635,10.2921375 31.6581963,10.2358085 C31.219729,10.1798775 30.7943441,10.172712 30.3818304,10.214909 C29.9695277,10.256907 29.5922517,10.3357278 29.2506355,10.4513715 C28.9085973,10.5672143 28.6131911,10.7143067 28.3644169,10.8930469 C28.1152206,11.0717871 27.9388209,11.2698344 27.8347957,11.4871888 L27.9576003,20.2040569 C27.9576003,20.3511493 27.8607492,20.4843088 27.6676802,20.6035353 C27.4744001,20.7225627 27.2290019,20.8155155 26.9319077,20.8821948 C26.6346024,20.948675 26.3149307,20.9874883 25.9733145,20.9978385 C25.6314873,21.0083877 25.3137146,20.9803227 25.0202074,20.9136435 C24.7267002,20.8469643 24.481513,20.7402775 24.2846459,20.592986 C24.0875677,20.4458936 23.9928267,20.2496377 24.0004229,20.0042182 C24.007597,19.7239664 24.0113951,19.3435961 24.0113951,18.8633065 L24.0113951,17.2229971 L24.0113951,15.2568551 L24.0113951,13.1432226 L24.0113951,11.0506885 C24.0113951,10.3673756 24.0094961,9.73641079 24.005909,9.15799322 C24.0021109,8.5797747 24.0004229,8.07341053 24.0004229,7.63870167 L24.0004229,6.67135502 C24.0004229,6.53819557 24.0932648,6.42255187 24.2791598,6.3244239 C24.4646327,6.2260969 24.6971596,6.15085883 24.9756854,6.0983116 C25.2544223,6.04576438 25.5570027,6.01411662 25.8840596,6.00356736 C26.2111165,5.99321715 26.5139079,6.00535875 26.7926447,6.04039023 C27.0711706,6.07562075 27.3034865,6.13851819 27.4893814,6.22967967 C27.6750653,6.32084114 27.7679073,6.43648484 27.7679073,6.57661078 L27.7345686,7.56505593 Z" id="Fill-1"></path>
                <path d="M42.2813684,9.76928799 C41.7837443,9.79896577 41.349913,9.92883235 40.9802783,10.1584668 C40.6106435,10.3883117 40.3031865,10.6829846 40.0577054,11.0424856 C39.8126281,11.4021971 39.6293248,11.8040047 39.508603,12.2489609 C39.3876794,12.6937065 39.3289335,13.1477134 39.3325672,13.6109813 C39.336201,14.0744598 39.4054444,14.5265723 39.5404994,14.9675293 C39.6755544,15.4086968 39.8727871,15.8014538 40.1323995,16.1462211 C40.3920119,16.4909885 40.717234,16.768823 41.1082676,16.9801456 C41.4990993,17.1914682 41.9577614,17.2971295 42.4840518,17.2971295 C43.0028728,17.2971295 43.4560842,17.1876795 43.8436859,16.9689901 C44.2312877,16.7503007 44.5510591,16.4594164 44.8036058,16.0961267 C45.0559507,15.7330475 45.242484,15.3215578 45.3634077,14.861868 C45.4843313,14.4023887 45.5376266,13.9334377 45.5234952,13.4554361 C45.5091621,12.977224 45.4310361,12.5101674 45.2887136,12.0542662 C45.1463911,11.5983651 44.9402758,11.196347 44.6701658,10.8480015 C44.4000559,10.4994455 44.0659513,10.2251891 43.667852,10.025022 C43.2695509,9.82485489 42.807457,9.7398207 42.2813684,9.76928799 M42.7719268,20.9996951 C41.8618703,21.0072724 41.0442729,20.8736172 40.3191347,20.5993608 C39.5937946,20.325315 38.9592987,19.9489755 38.4154451,19.4707634 C37.8715914,18.9927618 37.419995,18.4330937 37.0610597,17.7917591 C36.7019225,17.1506349 36.4354463,16.4705718 36.2612274,15.7513594 C36.0868066,15.0325678 36,14.2912549 36,13.527631 C36,12.7642176 36.0922573,12.0210103 36.2771756,11.2982196 C36.4620939,10.575429 36.7340207,9.89157727 37.0929561,9.24666447 C37.4520933,8.60175167 37.899854,8.03850537 38.4368439,7.55650462 C38.9736319,7.07492483 39.5974284,6.6950072 40.3084353,6.41696222 C41.0194422,6.13891725 41.8156407,6 42.6974346,6 C43.5432946,6 44.302348,6.14081157 44.9741909,6.42243472 C45.6460339,6.70426835 46.2343003,7.0839755 46.7391919,7.5621876 C47.2438816,8.0403997 47.6633797,8.5981735 47.9976862,9.23550899 C48.3317908,9.87326545 48.5823188,10.5495399 48.749472,11.2647532 C48.9164234,11.980177 49,12.7179118 49,13.4775366 C49,14.2375823 48.9164234,14.9770009 48.749472,15.6957925 C48.5823188,16.4150049 48.3317908,17.0931737 47.9976862,17.7307197 C47.6633797,18.3682656 47.2475154,18.9279338 46.7498913,19.409724 C46.2520653,19.8915143 45.6708646,20.2752206 45.0062892,20.5606324 C44.34131,20.8458337 43.5965899,20.9923283 42.7719268,20.9996951" id="Fill-3"></path>
                <path d="M59.8858321,15.6402256 C60.0277228,15.4623694 60.2169812,15.3697579 60.4525453,15.3621806 C60.6881094,15.3550242 60.9349313,15.4068025 61.1930109,15.5179363 C61.451303,15.6290701 61.7053469,15.7831419 61.9562046,15.9793099 C62.2066374,16.1758989 62.4198983,16.3853272 62.5957748,16.6075948 C62.7714389,16.8300728 62.8931506,17.0487623 62.960485,17.263663 C63.0278193,17.4787743 63.0091271,17.6639973 62.904196,17.8195425 C62.6125553,18.2348209 62.262714,18.6332608 61.8550968,19.0148623 C61.4472672,19.3968847 60.9948312,19.7340748 60.4973641,20.0266429 C59.9998969,20.319632 59.4667447,20.5532656 58.8983322,20.7271226 C58.3297072,20.9016111 57.7387791,20.9923283 57.1253355,20.9996951 C56.1677855,21.0072724 55.30752,20.8736172 54.5445387,20.5993608 C53.7815575,20.325315 53.113949,19.9489755 52.5415006,19.4707634 C51.9692647,18.9927618 51.4941007,18.4330937 51.1164335,17.7917591 C50.7387663,17.1506349 50.4581711,16.4705718 50.2748602,15.7513594 C50.0915492,15.0325678 50,14.2912549 50,13.527631 C50,12.7642176 50.0970719,12.0210103 50.2918531,11.2982196 C50.4862094,10.575429 50.7723273,9.89157727 51.1502069,9.24666447 C51.5278741,8.60175167 51.9992147,8.03850537 52.5640162,7.55650462 C53.1288177,7.07492483 53.7851685,6.69479672 54.5332809,6.41696222 C55.2813934,6.13891725 56.1191433,6 57.0469557,6 C57.6977838,6 58.3186619,6.07977218 58.90959,6.23889557 C59.5005181,6.39843992 60.0447157,6.6263905 60.5421829,6.9227473 C61.03965,7.21931457 61.4772172,7.5807099 61.8550968,8.00693327 C62.232764,8.43336713 62.5339632,8.91326307 62.7584819,9.44683159 C62.8330382,9.62468777 62.8126467,9.80822692 62.6966702,9.99723857 C62.5806936,10.1862502 62.4124639,10.3643169 62.1917686,10.5310176 C61.9710733,10.6977183 61.7166047,10.8461071 61.4287874,10.9757632 C61.1407578,11.1056298 60.8601625,11.2001356 60.587214,11.2592807 C60.3140532,11.3186363 60.0672313,11.3352642 59.846536,11.3093751 C59.6258407,11.283486 59.4743915,11.196347 59.3921883,11.0479581 C59.145154,10.6105793 58.7972244,10.2752835 58.3486119,10.04165 C57.8995745,9.80822692 57.3199042,9.71750975 56.6091761,9.76928799 C56.0932292,9.80654307 55.6386691,9.943566 55.2459207,10.1807777 C54.8531723,10.4179894 54.5277582,10.7162406 54.2696786,11.0757416 C54.0115989,11.435453 53.8189419,11.8393655 53.6917076,12.2878998 C53.5644732,12.7364341 53.5026615,13.1904409 53.5066974,13.6499203 C53.5103084,14.1096101 53.5831654,14.5562501 53.7254809,14.9898403 C53.8675841,15.4234305 54.0751099,15.8109254 54.3482707,16.1516936 C54.6212192,16.4926723 54.9634137,16.768823 55.3748543,16.9801456 C55.7862949,17.1914682 56.2686809,17.2971295 56.822437,17.2971295 C57.121512,17.2971295 57.4210119,17.2470351 57.720087,17.1468463 C58.019162,17.0468679 58.3035807,16.9172118 58.5729181,16.7576675 C58.8422556,16.5983336 59.0890775,16.4204774 59.3135962,16.2238885 C59.5379025,16.0277205 59.7286478,15.8332363 59.8858321,15.6402256" id="Fill-5"></path>
                <path d="M66.8786367,10.0645756 L72.6348858,5.7394878 C72.7606756,5.64476575 72.9310597,5.63751133 73.1460382,5.71772453 C73.3608064,5.79814501 73.58483,5.93121187 73.8183193,6.11733967 C74.0515984,6.30346748 74.2739391,6.52980551 74.4851313,6.79614652 C74.6961132,7.0626948 74.8629213,7.33110849 74.9851351,7.60097308 C75.1073489,7.87104493 75.1645644,8.13033878 75.1572021,8.37844009 C75.1498398,8.62674867 75.0423505,8.82738532 74.835155,8.98055731 C74.649836,9.11196602 74.3961529,9.29643567 74.0738955,9.53355171 C73.7516381,9.77087502 73.3793173,10.0444705 72.9571432,10.3547525 C72.5347589,10.6650346 72.0698836,11.0061998 71.5625175,11.3784554 C71.0549411,11.7509183 70.523595,12.1376828 69.9678483,12.5391633 L76.8351703,17.6854519 C76.9611704,17.7803813 77.0148098,17.9410149 76.9965093,18.1671457 C76.9777881,18.393691 76.9075309,18.6417923 76.7853171,18.9118642 C76.6631033,19.181936 76.5000815,19.4538733 76.2962516,19.727676 C76.0924217,20.0012714 75.8740775,20.2332057 75.6407985,20.4228571 C75.4073092,20.6125085 75.1700335,20.7366628 74.9293922,20.7951127 C74.6887509,20.8535627 74.4645169,20.8023671 74.2573214,20.6419407 C74.0128938,20.4520821 73.6386798,20.1637705 73.1348896,19.7767988 C72.6310995,19.3900344 72.0494796,18.9446127 71.3902403,18.4409484 C70.7307906,17.9372841 70.0160186,17.3917514 69.2455037,16.804143 C68.4749888,16.2165346 67.6971116,15.6198064 66.9120824,15.0137511 L66.9453179,20.171025 C66.9453179,20.3244042 66.8489772,20.4630674 66.6562959,20.5872216 C66.4636146,20.7111687 66.219187,20.8077561 65.9230131,20.8771913 C65.6266288,20.9464193 65.3079474,20.9868368 64.9673895,20.9978221 C64.6264108,21.0086001 64.3098329,20.9793751 64.017235,20.9101472 C63.7244267,20.840712 63.4799991,20.7294084 63.2839521,20.5760291 C63.0874845,20.4228571 62.993037,20.2184896 63.0003993,19.9629266 C63.0003993,19.7075709 63.0022924,19.3442279 63.0060788,18.8735194 C63.0096547,18.4028109 63.013441,17.8535473 63.0172273,17.2255214 C63.0208033,16.5979101 63.0226965,15.9116416 63.0226965,15.1671304 L63.0226965,12.8457146 C63.0226965,12.0427534 63.0243793,11.2306725 63.0281656,10.4094716 C63.0319519,9.5882708 63.0338451,8.78904051 63.0338451,8.01157349 C63.0338451,7.23410648 63.0355279,6.49498428 63.0393142,5.79420689 C63.0431005,5.09363677 63.0447833,4.46395274 63.0447833,3.90556934 C63.0447833,3.34697867 63.0466765,2.87627017 63.0504628,2.4930293 C63.0540387,2.10978842 63.0597182,1.84531284 63.0670805,1.69918801 C63.0744428,1.56052487 63.1707834,1.44010143 63.3561025,1.33771041 C63.5412111,1.23573393 63.7728074,1.15717888 64.0506807,1.10245979 C64.3283438,1.04774071 64.6285143,1.01478489 64.9505614,1.00379962 C65.2730291,0.992814352 65.5729894,1.00566505 65.8508627,1.04214444 C66.1285258,1.0788311 66.360122,1.14453545 66.5452307,1.23925751 C66.7303394,1.33418683 66.8231041,1.45461028 66.8231041,1.60073511 L66.8786367,10.0645756 Z" id="Fill-7"></path>
                <path d="M84.9611796,17.2303132 C85.5123399,17.2597084 85.9964558,17.1752753 86.4137387,16.9770138 C86.8305986,16.7787523 87.1808371,16.5071069 87.4638196,16.1618692 C87.7468021,15.8170484 87.9627402,15.4186491 88.1118454,14.9670882 C88.2609505,14.5155273 88.3425882,14.0529171 88.357816,13.5794661 C88.3724093,13.1058066 88.3167856,12.6415286 88.1900991,12.1862151 C88.0634126,11.7311101 87.8677782,11.3235378 87.6036189,10.9637067 C87.3390366,10.6040841 87.0038144,10.3157606 86.5979523,10.0991531 C86.1918787,9.88275408 85.7170687,9.7743461 85.1733107,9.7743461 C84.6595854,9.7743461 84.2069825,9.86607593 83.8159252,10.0495356 C83.4248678,10.2332037 83.0932411,10.4754538 82.8214679,10.7764945 C82.5494832,11.0775351 82.3354485,11.4244406 82.1791525,11.817211 C82.022645,12.2099815 81.9257795,12.6194301 81.8885561,13.0451398 L81.8885561,13.8381859 C81.9183771,14.256599 82.0059367,14.6641713 82.1512349,15.0606943 C82.2963217,15.4572173 82.4976665,15.8114195 82.7544234,16.1235094 C83.0113919,16.4355993 83.322292,16.690775 83.6875467,16.888828 C84.0523784,17.0870896 84.4768522,17.2009179 84.9611796,17.2303132 M85.4751165,6.10682086 C86.3390803,6.11432603 87.1192915,6.25921746 87.8159615,6.5419121 C88.5122085,6.82460675 89.1211074,7.2046601 89.6426582,7.6816552 C90.163786,8.15906725 90.5996806,8.71340727 90.9497076,9.34467525 C91.2997346,9.97636019 91.5624134,10.6480727 91.7375326,11.3602297 C91.9124404,12.0723867 92,12.804766 92,13.5573675 C92,14.3099691 91.9124404,15.040472 91.7375326,15.749085 C91.5624134,16.4576979 91.2997346,17.1275341 90.9497076,17.7590105 C90.5996806,18.390487 90.1601905,18.9429507 89.6314489,19.4164017 C89.1024957,19.8900612 88.4861945,20.266362 87.7823336,20.545304 C87.0784727,20.8244546 86.2832452,20.9639256 85.3968627,20.9639256 C84.6968088,20.9639256 84.0523784,20.8830366 83.4639947,20.721467 C82.875611,20.5601059 82.3354485,20.3399543 81.8439303,20.0608037 L81.8439303,20.4462775 C81.8439303,20.5930452 81.7506603,20.7104177 81.5645432,20.7986034 C81.3784261,20.8867891 81.1474718,20.9453711 80.8718916,20.9747664 C80.5963115,21.0041616 80.2964092,21.0079142 79.9726078,20.9858157 C79.6483835,20.9639256 79.3484812,20.9197285 79.0731125,20.8536413 C78.7973209,20.7875541 78.5646746,20.7014532 78.3747506,20.5949215 C78.1848266,20.4883898 78.0898646,20.3655969 78.0898646,20.2259174 C78.0824622,20.0497545 78.0767518,19.6882556 78.0731563,19.1412122 C78.0693494,18.5941689 78.0655424,17.9278768 78.061947,17.1421275 C78.0581401,16.3565866 78.0543331,15.4830685 78.0507377,14.5209477 C78.0469307,13.5592438 78.0433353,12.5716889 78.0395283,11.5584912 C78.0357214,10.5452936 78.032126,9.53939266 78.028319,8.54078841 C78.0245121,7.54239264 78.0228201,6.61529596 78.0228201,5.75991533 C78.0228201,4.9045347 78.0209166,4.15193317 78.0171097,3.50211074 C78.0133028,2.85249679 78.0078038,2.36612023 78.0004015,2.04298107 C77.9929991,1.78592908 78.0879611,1.58037088 78.285499,1.42609799 C78.4826139,1.27203357 78.728373,1.16028997 79.0227763,1.09024174 C79.3169682,1.02061046 79.6352707,0.991215219 79.9781067,1.00226449 C80.3205198,1.01310529 80.6409373,1.05354981 80.9389361,1.12338956 C81.2367234,1.19322931 81.4824825,1.29037954 81.6764249,1.41525719 C81.8699444,1.54013484 81.9668099,1.67939739 81.9668099,1.83367028 L81.9333934,6.93280625 C82.4249116,6.66845757 82.9629591,6.46310784 83.5477474,6.31613164 C84.1325357,6.16936392 84.774851,6.09952417 85.4751165,6.10682086" id="Fill-9"></path>
                <path d="M101.325032,19.7614864 C101.212169,19.8195579 101.099105,19.8739226 100.986242,19.9245807 C100.873178,19.9754446 100.756707,20.0263086 100.636627,20.0769667 C99.4646946,20.5629545 98.4338913,20.8166566 97.5444175,20.8384849 C96.6547433,20.8601072 95.897578,20.6391475 95.2727211,20.174782 C94.6478643,19.7108284 94.1571201,18.9927608 93.8006891,18.0207852 C93.4440577,17.0492214 93.2165272,15.8089228 93.1176968,14.3003013 C93.0471322,13.2560453 93.0080411,12.1102672 93.0012252,10.8627612 C92.9940084,9.61546108 93.0186659,8.30267618 93.0753981,6.92481835 C93.082214,6.71456684 93.1760328,6.54035256 93.3560525,6.40258737 C93.5360722,6.26482218 93.7565863,6.16309422 94.0177953,6.09781534 C94.2790043,6.0327424 94.5614629,6 94.8649705,6 C95.1684781,6 95.4491324,6.03644909 95.7069335,6.10872948 C95.9645341,6.18142172 96.1764281,6.2847971 96.3424151,6.4188556 C96.5082016,6.55312003 96.5875867,6.72177428 96.5805703,6.92481835 C96.5523044,7.59202196 96.5258428,8.2464581 96.5011853,8.88833269 C96.4763273,9.53000135 96.4570824,10.1430462 96.4428493,10.7266434 C96.4288165,11.3106525 96.4234039,11.8563591 96.4270123,12.3639693 C96.4306207,12.8717854 96.4428493,13.3250308 96.4640988,13.7239115 C96.5065979,14.4273583 96.5893909,15.0255763 96.7130793,15.5187716 C96.8363667,16.0119669 97.0288154,16.3908726 97.2902249,16.6554889 C97.5512334,16.920517 97.892028,17.0619888 98.3122076,17.0799045 C98.7321868,17.0980261 99.2600174,16.9802358 99.895499,16.7263278 C100.431749,16.5160763 100.897836,16.2549608 101.293358,15.9431872 L101.240435,6.82679707 C101.240435,6.67441106 101.332048,6.5368518 101.515676,6.4135015 C101.699305,6.2901512 101.932248,6.1941892 102.214506,6.12520364 C102.496964,6.05621808 102.800472,6.01626824 103.125429,6.00556003 C103.450187,5.99443997 103.75189,6.02368161 104.030941,6.09246124 C104.309791,6.1614468 104.54093,6.27202962 104.724558,6.42420971 C104.907985,6.57659572 105,6.77963978 105,7.03354782 C104.992783,7.35273474 104.989175,7.76623624 104.989175,8.27364047 C104.989175,8.78145656 104.987571,9.34899148 104.983963,9.97603933 C104.980354,10.603499 104.97875,11.2690552 104.97875,11.9722961 C104.97875,12.6759488 104.976946,13.3812489 104.973338,14.0881964 C104.969729,14.7953499 104.968126,15.4825284 104.968126,16.149732 C104.968126,16.8171416 104.966321,17.4297745 104.962713,17.9882487 C104.959105,18.5469287 104.955697,19.0290039 104.952289,19.4350921 C104.94848,19.8413861 104.943268,20.1313314 104.936251,20.3053398 C104.929235,20.4433109 104.837421,20.5629545 104.66101,20.6644765 C104.484398,20.7657926 104.263884,20.843839 103.999066,20.8984096 C103.734449,20.9527744 103.448382,20.9853108 103.141266,20.996225 C102.83415,21.0071391 102.548284,20.9943716 102.283466,20.9581285 C102.018649,20.9216794 101.797934,20.8582539 101.621523,20.767646 C101.445112,20.6770381 101.356906,20.5555411 101.356906,20.403361 L101.325032,19.7614864 Z" id="Fill-11"></path>
                <path d="M109.734569,7.56505593 C110.046644,7.38273298 110.412526,7.22509131 110.832636,7.09193186 C111.252324,6.95877242 111.698176,6.86422722 112.169982,6.80789819 C112.641999,6.75196724 113.132373,6.7396266 113.641527,6.77127436 C114.15047,6.80272308 114.652027,6.88691807 115.1462,7.02346124 C115.640372,7.16020345 116.116187,7.35307565 116.573223,7.6018788 C117.030258,7.85088099 117.448258,8.16795573 117.827222,8.55350109 C117.946018,8.67969405 118.003622,8.84450125 117.999824,9.04772367 C117.996026,9.25114512 117.949816,9.46471775 117.860561,9.68903867 C117.771306,9.91355863 117.656098,10.1376805 117.515147,10.3620014 C117.373774,10.5865214 117.221428,10.7774032 117.058111,10.9350448 C116.894582,11.0928856 116.73654,11.2067379 116.584195,11.2768008 C116.43185,11.3468638 116.30377,11.3398973 116.199745,11.2557023 C115.813185,10.954551 115.402781,10.7232636 114.967901,10.5618401 C114.533232,10.4006157 114.096664,10.2921375 113.658196,10.2358085 C113.219729,10.1798775 112.794344,10.172712 112.38183,10.214909 C111.969528,10.256907 111.592252,10.3357278 111.250636,10.4513715 C110.908597,10.5672143 110.613191,10.7143067 110.364417,10.8930469 C110.115221,11.0717871 109.938821,11.2698344 109.834796,11.4871888 L109.9576,20.2040569 C109.9576,20.3511493 109.860749,20.4843088 109.66768,20.6035353 C109.4744,20.7225627 109.229002,20.8155155 108.931908,20.8821948 C108.634602,20.948675 108.314931,20.9874883 107.973314,20.9978385 C107.631487,21.0083877 107.313715,20.9803227 107.020207,20.9136435 C106.7267,20.8469643 106.481513,20.7402775 106.284646,20.592986 C106.087568,20.4458936 105.992827,20.2496377 106.000423,20.0042182 C106.007597,19.7239664 106.011395,19.3435961 106.011395,18.8633065 L106.011395,17.2229971 L106.011395,15.2568551 L106.011395,13.1432226 L106.011395,11.0506885 C106.011395,10.3673756 106.009496,9.73641079 106.005909,9.15799322 C106.002111,8.5797747 106.000423,8.07341053 106.000423,7.63870167 L106.000423,6.67135502 C106.000423,6.53819557 106.093265,6.42255187 106.27916,6.3244239 C106.464633,6.2260969 106.696949,6.15085883 106.975685,6.0983116 C107.254422,6.04576438 107.557003,6.01411662 107.88406,6.00356736 C108.211116,5.99321715 108.513908,6.00535875 108.792645,6.04039023 C109.071171,6.07562075 109.303486,6.13851819 109.489381,6.22967967 C109.675065,6.32084114 109.767907,6.43648484 109.767907,6.57661078 L109.734569,7.56505593 Z" id="Fill-13"></path>
                <path d="M125.160072,9.96638087 C124.672058,9.99532977 124.246604,10.1127678 123.884107,10.3189004 C123.52161,10.5250329 123.22009,10.7890633 122.979349,11.1105808 C122.739005,11.4325089 122.559241,11.7924197 122.44085,12.1899024 C122.322262,12.5875904 122.26465,12.9924643 122.268214,13.4047294 C122.271778,13.8167892 122.339684,14.2200206 122.472131,14.614013 C122.604578,15.0082107 122.798002,15.3588824 123.052601,15.6660281 C123.3072,15.9733792 123.626142,16.2209846 124.009625,16.4090498 C124.392909,16.5971149 124.842714,16.6909422 125.358842,16.6909422 C125.867644,16.6909422 126.312104,16.5934193 126.692221,16.3981683 C127.072338,16.2029172 127.385934,15.9425825 127.633604,15.617164 C127.881076,15.2917456 128.064008,14.9232118 128.182596,14.5109467 C128.301185,14.0986816 128.353451,13.6794359 128.339592,13.252799 C128.325536,12.8261621 128.248919,12.4087642 128.109345,11.9999894 C127.96977,11.5916252 127.767635,11.2319198 127.502741,10.9208731 C127.237847,10.6100318 126.910194,10.366122 126.519783,10.188733 C126.129173,10.0117547 125.676002,9.93763729 125.160072,9.96638087 M131.895468,7.02714417 C131.916255,7.61289733 131.933678,8.21302229 131.947734,8.82751904 C131.961592,9.4422211 131.972085,10.0515851 131.979212,10.654995 C131.986142,11.2590209 131.991289,11.8519599 131.994853,12.4340175 C131.998218,13.0160751 132,13.5691837 132,14.0933435 C132,14.6177086 131.996436,15.1038858 131.989705,15.5522857 C131.982578,16.0006856 131.975451,16.394678 131.96872,16.7342629 C131.954663,17.5080812 131.918037,18.271018 131.858842,19.022868 C131.799647,19.7749234 131.717684,20.4475232 131.613152,21.040257 C131.459719,21.8645819 131.199973,22.5893308 130.833912,23.2149144 C130.467851,23.8402926 130.012899,24.3628099 129.469055,24.7822609 C128.92521,25.2015066 128.308114,25.514401 127.617964,25.7203283 C126.927616,25.9264608 126.181439,26.0186456 125.37963,25.9968826 C124.570693,25.9753249 123.859558,25.9046978 123.246223,25.7854119 C122.632493,25.6661261 122.100923,25.5197391 121.651118,25.3462511 C121.201511,25.1725577 120.826541,24.9844925 120.527001,24.7822609 C120.227065,24.5796186 119.986522,24.3808773 119.805373,24.1856262 C119.623827,23.9975611 119.51593,23.7661752 119.481086,23.4914687 C119.446043,23.2165568 119.463663,22.9400025 119.533352,22.6618057 C119.60304,22.3834036 119.714501,22.1156776 119.868132,21.8592438 C120.021168,21.6023993 120.197566,21.3927765 120.396138,21.2299646 C120.594907,21.0673581 120.80417,20.9698352 121.023727,20.9371907 C121.243284,20.9047515 121.457694,20.971683 121.666956,21.1379851 C121.966694,21.4342494 122.330973,21.6837026 122.759792,21.8863449 C123.188612,22.0885765 123.636635,22.233321 124.103862,22.3201677 C124.570693,22.406809 125.034555,22.428572 125.494655,22.3852514 C125.954952,22.3417254 126.369716,22.2205917 126.73934,22.0218503 C127.108766,21.8229037 127.413849,21.5408059 127.65459,21.1759677 C127.894935,20.8107189 128.025798,20.3460994 128.046784,19.7821093 C127.691018,19.9486167 127.314663,20.0748832 126.917124,20.1617299 C126.519783,20.2485766 126.094329,20.2955928 125.641158,20.3027787 C124.748675,20.3099646 123.946866,20.1853407 123.23573,19.9284962 C122.524397,19.6718571 121.902153,19.3211854 121.368802,18.8764811 C120.83545,18.4317768 120.392574,17.9094648 120.04057,17.3093399 C119.688368,16.7092149 119.427038,16.0727498 119.256183,15.4003553 C119.08513,14.7277554 119,14.0354457 119,13.3232208 C119,12.6112012 119.090476,11.9170436 119.271823,11.2409535 C119.453171,10.5648633 119.719846,9.92675579 120.071851,9.32642552 C120.424053,8.72630056 120.863167,8.20029299 121.389787,7.7484028 C121.91621,7.29671791 122.527961,6.94029748 123.225238,6.68016805 C123.922515,6.41983331 124.703338,6.28966594 125.568104,6.28966594 C126.069977,6.28966594 126.537007,6.34222564 126.96939,6.44672909 C127.401773,6.55184848 127.806241,6.69823545 128.182596,6.8860953 L128.182596,6.82101161 C128.175667,6.66908124 128.261193,6.53193329 128.438977,6.40895181 C128.616563,6.28597034 128.841466,6.19029527 129.113487,6.12151598 C129.38531,6.05273669 129.681683,6.01311161 130.002406,6.00223011 C130.32313,5.99134861 130.622868,6.0202975 130.901818,6.08887148 C131.180769,6.15765077 131.414382,6.26790294 131.602659,6.41983331 C131.790936,6.57155837 131.888341,6.77420063 131.895468,7.02714417" id="Fill-15"></path>
                <path d="M9.5,23.2847695 C5.21205507,23.2847695 1.72729139,19.8200568 1.72729139,15.5663339 L1.72729139,3.00170442 C1.72729139,2.29404185 2.31017268,1.71523055 3.02281126,1.71523055 C3.73524454,1.71523055 4.31812582,2.29404185 4.31812582,3.00170442 L4.31812582,11.2781556 C4.31812582,11.9815368 4.48668713,12.9291644 4.94001642,13.8168518 C5.63951503,15.1846732 7.01715978,16.4238473 9.5,16.4238473 L9.81535951,16.4238473 C9.11996715,17.2085759 8.63645696,18.3193065 8.63645696,19.8543084 C8.63645696,20.3260834 9.02511292,20.7120256 9.5,20.7120256 C9.97509239,20.7120256 10.3637484,20.3260834 10.3637484,19.8543084 C10.3637484,16.5482132 13.4684792,16.4281287 13.8183311,16.4238473 C14.2932182,16.4238473 14.6818742,16.0379051 14.6818742,15.5663339 C14.6818742,15.0945589 14.2932182,14.7086167 13.8183311,14.7086167 L9.5,14.7086167 C8.35148365,14.7086167 7.58710639,14.3440818 7.07752156,13.8511034 C6.53344427,13.3279509 6.27865186,12.6633067 6.15341142,12.1358728 L13.8140196,12.1358728 C13.9177022,12.1358728 14.2544142,12.1487172 14.6818742,12.2473944 C15.5758034,12.4492342 16.8670117,13.0362007 17.1951006,14.7086167 C17.2468393,14.9659115 17.2729139,15.2531764 17.2729139,15.5663339 C17.2729139,15.8578803 17.2554624,16.1408638 17.2252815,16.4238473 C16.79351,20.2745021 13.490037,23.2847695 9.5,23.2847695 L9.5,23.2847695 Z M6.04541722,9.13416842 C6.04541722,8.42670973 6.62850381,7.84769454 7.34093709,7.84769454 C8.05357567,7.84769454 8.63645696,8.42670973 8.63645696,9.13416842 L8.63645696,10.4206423 L6.04541722,10.4206423 L6.04541722,9.13416842 Z M10.3637484,9.13416842 C10.3637484,8.42670973 10.9466296,7.84769454 11.6592682,7.84769454 C12.3717015,7.84769454 12.9545828,8.42670973 12.9545828,9.13416842 L12.9545828,10.4206423 L10.3637484,10.4206423 L10.3637484,9.13416842 Z M14.6818742,3.00170442 C14.6818742,2.29404185 15.2649608,1.71523055 15.977394,1.71523055 C16.6898273,1.71523055 17.2729139,2.29404185 17.2729139,3.00170442 L17.2729139,11.6127204 C16.4654211,10.965202 15.5066132,10.6308411 14.6818742,10.493427 L14.6818742,3.00170442 Z M15.977394,0 C14.3104644,0 12.9545828,1.34641418 12.9545828,3.00170442 L12.9545828,6.42401037 C12.5616153,6.23542268 12.1212206,6.132464 11.6592682,6.132464 C10.8127661,6.132464 10.0483888,6.47987311 9.5,7.03727716 C8.95161116,6.47987311 8.1872339,6.132464 7.34093709,6.132464 C6.87877937,6.132464 6.43838473,6.23542268 6.04541722,6.42401037 L6.04541722,3.00170442 C6.04541722,1.34641418 4.68953556,0 3.02281126,0 C1.35588165,0 0,1.34641418 0,3.00170442 L0,15.5663339 C0,20.7676844 4.2620756,25 9.5,25 C14.7077435,25 18.9525729,20.8147804 18.9956884,15.6519629 C19,15.6219928 19,15.5963041 19,15.5663339 L19,3.00170442 C19,1.34641418 17.6441183,0 15.977394,0 L15.977394,0 Z" id="Fill-17"></path>
            </g>
        </g>
    </g>
</svg>